/* XPM */
static const char * regex_16_xpm[] = {
"16 16 7 1",
" 	c None",
".	c #00FF00",
"+	c #000000",
"@	c #000080",
"#	c #FFFFFF",
"$	c #FFFF00",
"%	c #FF0000",
"....            ",
".   .           ",
".   .  ...  ... ",
".  .++.++.+.  . ",
"... +@...@+.  . ",
".  .+#.@@.+.  . ",
".   .#@..+++...+",
"+++++#@@@+$$$$.+",
"+%%%+@@@@+#...$+",
"+#%%+.....#$$$$+",
"+#%%%.+  +#$$$$+",
"+#%%%.+  +$.$$$.",
"+%%%%.....++.+.+",
"+++++.+      .  ",
"     .      . . ",
"     ..... .   ."};
